HIERARCHY
ROOT Hips
{
	OFFSET 0.000000 0.000000 0.000000
	CHANNELS 6 Xposition Yposition Zposition Zrotation Yrotation Xrotation 
	JOINT LHipJoint
	{
		OFFSET 0.000000 0.000000 0.000000
		CHANNELS 3 Zrotation Yrotation Xrotation
		JOINT LeftUpLeg
		{
			OFFSET 1.363060 -1.794630 0.839290
			CHANNELS 3 Zrotation Yrotation Xrotation
			JOINT LeftLeg
			{
				OFFSET 2.448110 -6.726130 0.000000
				CHANNELS 3 Zrotation Yrotation Xrotation
				JOINT LeftFoot
				{
					OFFSET 2.562200 -7.039590 0.000000
					CHANNELS 3 Zrotation Yrotation Xrotation
					JOINT LeftToeBase
					{
						OFFSET 0.157640 -0.433110 2.322550
						CHANNELS 3 Zrotation Yrotation Xrotation
						End Site
						{
							OFFSET 0.000000 0.000000 0.000000
						}
					}
				}
			}
		}
	}
	JOINT RHipJoint
	{
		OFFSET 0.000000 0.000000 0.000000
		CHANNELS 3 Zrotation Yrotation Xrotation
		JOINT RightUpLeg
		{
			OFFSET -1.305520 -1.794630 0.839290
			CHANNELS 3 Zrotation Yrotation Xrotation
			JOINT RightLeg
			{
				OFFSET -2.542530 -6.985550 0.000000
				CHANNELS 3 Zrotation Yrotation Xrotation
				JOINT RightFoot
				{
					OFFSET -2.568260 -7.056230 0.000000
					CHANNELS 3 Zrotation Yrotation Xrotation
					JOINT RightToeBase
					{
						OFFSET -0.164730 -0.452590 2.363150
						CHANNELS 3 Zrotation Yrotation Xrotation
						End Site
						{
							OFFSET 0.000000 0.000000 0.000000
						}
					}
				}
			}
		}
	}
	JOINT LowerBack
	{
		OFFSET 0.000000 0.000000 0.000000
		CHANNELS 3 Zrotation Yrotation Xrotation
		JOINT Spine
		{
			OFFSET 0.028270 2.035590 -0.193380
			CHANNELS 3 Zrotation Yrotation Xrotation
			JOINT Spine1
			{
				OFFSET 0.056720 2.048850 -0.042750
				CHANNELS 3 Zrotation Yrotation Xrotation
				JOINT Neck
				{
					OFFSET 0.000000 0.000000 0.000000
					CHANNELS 3 Zrotation Yrotation Xrotation
					JOINT Neck1
					{
						OFFSET -0.054170 1.746240 0.172020
						CHANNELS 3 Zrotation Yrotation Xrotation
						JOINT Head
						{
							OFFSET 0.104070 1.761360 -0.123970
							CHANNELS 3 Zrotation Yrotation Xrotation
							End Site
							{
								OFFSET 0.000000 0.000000 0.000000
							}
						}
					}
				}
				JOINT LeftShoulder
				{
					OFFSET 0.000000 0.000000 0.000000
					CHANNELS 3 Zrotation Yrotation Xrotation
					JOINT LeftArm
					{
						OFFSET 3.362410 1.200890 -0.311210
						CHANNELS 3 Zrotation Yrotation Xrotation
						JOINT LeftForeArm
						{
							OFFSET 4.983000 -0.000000 -0.000000
							CHANNELS 3 Zrotation Yrotation Xrotation
							JOINT LeftHand
							{
								OFFSET 3.483560 -0.000000 -0.000000
								CHANNELS 3 Zrotation Yrotation Xrotation
								JOINT LeftFingerBase
								{
									OFFSET 0.000000 0.000000 0.000000
									CHANNELS 3 Zrotation Yrotation Xrotation
									JOINT LeftHandIndex1
									{
										OFFSET 0.715260 -0.000000 -0.000000
										CHANNELS 3 Zrotation Yrotation Xrotation
										End Site
										{
											OFFSET 0.000000 0.000000 0.000000
										}
									}
								}
								JOINT LThumb
								{
									OFFSET 0.000000 0.000000 0.000000
									CHANNELS 3 Zrotation Yrotation Xrotation
									End Site
									{
										OFFSET 0.000000 0.000000 0.000000
									}
								}
							}
						}
					}
				}
				JOINT RightShoulder
				{
					OFFSET 0.000000 0.000000 0.000000
					CHANNELS 3 Zrotation Yrotation Xrotation
					JOINT RightArm
					{
						OFFSET -3.136600 1.374050 -0.404650
						CHANNELS 3 Zrotation Yrotation Xrotation
						JOINT RightForeArm
						{
							OFFSET -5.241900 -0.000000 -0.000000
							CHANNELS 3 Zrotation Yrotation Xrotation
							JOINT RightHand
							{
								OFFSET -3.444170 -0.000000 -0.000000
								CHANNELS 3 Zrotation Yrotation Xrotation
								JOINT RightFingerBase
								{
									OFFSET 0.000000 0.000000 0.000000
									CHANNELS 3 Zrotation Yrotation Xrotation
									JOINT RightHandIndex1
									{
										OFFSET -0.622530 -0.000000 -0.000000
										CHANNELS 3 Zrotation Yrotation Xrotation
										End Site
										{
											OFFSET 0.000000 0.000000 0.000000
										}
									}
								}
								JOINT RThumb
								{
									OFFSET 0.000000 0.000000 0.000000
									CHANNELS 3 Zrotation Yrotation Xrotation
									End Site
									{
										OFFSET 0.000000 0.000000 0.000000
									}
								}
							}
						}
					}
				}
			}
		}
	}
}
MOTION
Frames: 5
Frame Time: 0.008333
-0.943179 18.177126 5.774350 -5.214570 -0.925781 3.429710 0.190958 4.427290 3.671871 -8.863880 -5.950285 10.537054 -1.627814 -5.926608 -13.454785 -5.361621 21.582350 1.886624 0.241300 -3.160900 -8.727100 -1.111929 -4.122664 2.897656 0.241527 2.608386 -5.534315 0.799299 0.028555 1.345379 0.172446 -4.010937 12.431754 0.000000 0.000000 0.000000 3.934041 0.936524 -3.098533 3.574269 0.660917 10.759431 -4.307570 0.639875 -9.897545 -4.267509 -3.311983 -17.657830 7.765428 -4.352347 16.316880 1.556800 -1.584900 6.546300 1.618220 -8.170566 0.422829 -92.249855 9.734954 30.474504 23.558858 -32.672668 -6.416019 0.588352 0.405363 5.569170 5.001394 -23.168425 -1.791100 -7.125000 0.000000 0.000000 -15.253700 6.939600 13.810200 -3.690066 9.472413 2.790616 94.672392 -12.129031 23.217296 -29.703295 37.478959 -8.328398 1.134865 -2.493994 17.416876 -6.735147 -28.432132 3.839200 7.125000 0.000000 0.000000 22.635400 -55.038900 -5.799400 
-0.943479 18.175427 5.773851 -5.188357 -0.936302 3.409075 0.185548 4.429312 3.679388 -8.886805 -5.931905 10.536053 -1.629097 -5.923024 -13.440735 -5.358191 21.569845 1.897304 0.244000 -3.178500 -8.776000 -1.114183 -4.125930 2.904789 0.239805 2.608981 -5.532012 0.799336 0.029984 1.345847 0.173098 -4.009541 12.432338 0.000000 0.000000 0.000000 3.916274 0.943385 -3.133595 3.547493 0.663793 10.858469 -4.299636 0.645054 -9.908090 -4.403579 -3.317084 -17.752255 7.911392 -4.352850 16.352201 1.603000 -1.576700 6.570200 1.638110 -8.170033 0.417352 -92.270016 9.678614 30.483962 23.531540 -32.650732 -6.403920 0.588427 0.405761 5.560571 5.031395 -23.174646 -1.803600 -7.125000 0.000000 0.000000 -15.235600 6.930800 13.795200 -3.688253 9.465458 2.782052 94.672220 -12.102508 23.178352 -29.682512 37.459225 -8.314965 1.127742 -2.493747 17.474310 -6.822607 -28.309907 3.859500 7.125000 0.000000 0.000000 22.477200 -54.941300 -5.701200 
-0.943778 18.175228 5.773751 -5.173072 -0.944909 3.412640 0.183777 4.427684 3.676154 -8.903371 -5.909484 10.537600 -1.628945 -5.926624 -13.450053 -5.361870 21.589897 1.917732 0.250800 -3.222300 -8.898300 -1.115718 -4.125983 2.903222 0.239996 2.608840 -5.532461 0.799361 0.029695 1.345745 0.172981 -4.009814 12.432194 0.000000 0.000000 0.000000 3.890398 0.949311 -3.136087 3.539569 0.671414 10.840060 -4.297231 0.649831 -9.903848 -4.572073 -3.325474 -17.791334 8.172260 -4.371392 16.437408 1.677400 -1.567100 6.600000 1.648986 -8.170734 0.419846 -92.286902 9.676467 30.479980 23.510352 -32.631209 -6.395199 0.589725 0.405172 5.576190 5.047812 -23.222684 -1.813200 -7.125000 0.000000 0.000000 -15.225800 6.883300 13.800300 -3.673447 9.466548 2.785016 94.670396 -12.113260 23.153233 -29.684059 37.460027 -8.320885 1.119562 -2.495789 17.455622 -7.001040 -28.312857 3.935400 7.125000 0.000000 0.000000 22.306600 -54.968700 -5.669800 
-0.943878 18.176127 5.774050 -5.178472 -0.950332 3.437841 0.180973 4.424779 3.671186 -8.895058 -5.912600 10.519264 -1.629178 -5.924716 -13.447860 -5.366567 21.604143 1.905800 0.248200 -3.205500 -8.851300 -1.118537 -4.124800 2.898305 0.240397 2.608558 -5.533585 0.799424 0.029036 1.345559 0.172712 -4.010413 12.431839 0.000000 0.000000 0.000000 3.902975 0.951883 -3.148688 3.509630 0.676064 10.780063 -4.294438 0.650665 -9.878627 -4.580787 -3.304389 -17.757679 8.220619 -4.347761 16.420861 1.691000 -1.552900 6.592800 1.648975 -8.174007 0.422179 -92.297898 9.669747 30.415775 23.461719 -32.580231 -6.374663 0.592590 0.403227 5.653118 5.076422 -23.316981 -1.830600 -7.125000 0.000000 0.000000 -15.209000 6.790800 13.812100 -3.660895 9.469898 2.790839 94.673649 -12.139869 23.168448 -29.719171 37.494620 -8.347168 1.121583 -2.497708 17.337168 -7.063465 -28.466939 3.983500 7.125000 0.000000 0.000000 22.338600 -55.115900 -5.760300 
-0.943978 18.176127 5.773651 -5.185185 -0.949635 3.439086 0.182552 4.426139 3.675136 -8.887018 -5.924564 10.512075 -1.629935 -5.923676 -13.444440 -5.369368 21.607738 1.887472 0.251200 -3.224600 -8.904700 -1.116122 -4.126034 2.902497 0.240112 2.608695 -5.532802 0.799392 0.029461 1.345668 0.172894 -4.010030 12.432073 0.000000 0.000000 0.000000 3.891564 0.947814 -3.194000 3.525213 0.666221 10.822457 -4.284108 0.648228 -9.862475 -4.525257 -3.277922 -17.742923 8.146866 -4.308857 16.359493 1.672800 -1.540600 6.576500 1.647646 -8.174262 0.416187 -92.322593 9.625184 30.352945 23.415157 -32.532372 -6.354130 0.594214 0.401575 5.752543 5.112798 -23.369042 -1.848700 -7.125000 0.000000 0.000000 -15.187000 6.737900 13.806700 -3.669529 9.468800 2.787474 94.636816 -12.136915 23.222430 -29.734537 37.504795 -8.351910 1.125584 -2.495803 17.267119 -7.030469 -28.467409 3.969200 7.125000 0.000000 0.000000 22.371400 -55.111500 -5.766900 
